<mxfile host="app.diagrams.net" agent="Mozilla/5.0 (Windows NT 10.0; Win64; x64) AppleWebKit/537.36 (KHTML, like Gecko) Chrome/138.0.0.0 Safari/537.36 Edg/138.0.0.0" version="28.0.7">
  <diagram name="Page-1" id="1WZ4-aWFHayp4CXcd575">
    <mxGraphModel dx="985" dy="589" grid="1" gridSize="10" guides="1" tooltips="1" connect="1" arrows="1" fold="1" page="1" pageScale="1" pageWidth="1100" pageHeight="850" math="0" shadow="0">
      <root>
        <mxCell id="0" />
        <mxCell id="1" parent="0" />
        <mxCell id="tEogaM8hIcUbl6TOvtMi-2" value="" style="whiteSpace=wrap;html=1;fillStyle=auto;dashed=1;dashPattern=8 8;strokeColor=light-dark(#000000,#1F4EA9);" vertex="1" parent="1">
          <mxGeometry x="160" y="85" width="126" height="607" as="geometry" />
        </mxCell>
        <mxCell id="tEogaM8hIcUbl6TOvtMi-3" value="" style="whiteSpace=wrap;html=1;fillStyle=auto;dashed=1;dashPattern=8 8;strokeColor=light-dark(#000000,#1F4EA9);" vertex="1" parent="1">
          <mxGeometry x="632" y="82" width="128" height="607" as="geometry" />
        </mxCell>
        <mxCell id="tEogaM8hIcUbl6TOvtMi-4" value="" style="whiteSpace=wrap;html=1;fillStyle=auto;dashed=1;dashPattern=8 8;strokeColor=light-dark(#000000,#1F4EA9);" vertex="1" parent="1">
          <mxGeometry x="304" y="85" width="126" height="607" as="geometry" />
        </mxCell>
        <mxCell id="tEogaM8hIcUbl6TOvtMi-5" value="" style="endArrow=classic;html=1;rounded=0;strokeWidth=3;" edge="1" parent="1">
          <mxGeometry width="50" height="50" relative="1" as="geometry">
            <mxPoint x="353" y="428.28999999999996" as="sourcePoint" />
            <mxPoint x="353" y="229" as="targetPoint" />
          </mxGeometry>
        </mxCell>
        <mxCell id="tEogaM8hIcUbl6TOvtMi-6" value="" style="whiteSpace=wrap;html=1;fillStyle=auto;dashed=1;dashPattern=8 8;strokeColor=light-dark(#000000,#1F4EA9);" vertex="1" parent="1">
          <mxGeometry x="477" y="84" width="107" height="607" as="geometry" />
        </mxCell>
        <mxCell id="tEogaM8hIcUbl6TOvtMi-7" value="" style="rounded=0;whiteSpace=wrap;html=1;dashed=1;dashPattern=8 8;strokeColor=light-dark(#000000,#1F4EA9);" vertex="1" parent="1">
          <mxGeometry x="782" y="84" width="140" height="607" as="geometry" />
        </mxCell>
        <mxCell id="tEogaM8hIcUbl6TOvtMi-8" value="Prod release" style="text;html=1;align=center;verticalAlign=middle;resizable=0;points=[];autosize=1;strokeColor=none;fillColor=none;" vertex="1" parent="1">
          <mxGeometry x="807" y="690" width="90" height="30" as="geometry" />
        </mxCell>
        <mxCell id="tEogaM8hIcUbl6TOvtMi-9" value="" style="endArrow=none;html=1;rounded=0;fillColor=#60a917;strokeColor=#2D7600;" edge="1" parent="1">
          <mxGeometry width="50" height="50" relative="1" as="geometry">
            <mxPoint x="100" y="428" as="sourcePoint" />
            <mxPoint x="1030" y="428" as="targetPoint" />
          </mxGeometry>
        </mxCell>
        <mxCell id="tEogaM8hIcUbl6TOvtMi-10" value="DEV" style="edgeLabel;html=1;align=center;verticalAlign=middle;resizable=0;points=[];" vertex="1" connectable="0" parent="tEogaM8hIcUbl6TOvtMi-9">
          <mxGeometry x="0.9487" y="3" relative="1" as="geometry">
            <mxPoint as="offset" />
          </mxGeometry>
        </mxCell>
        <mxCell id="tEogaM8hIcUbl6TOvtMi-11" value="" style="endArrow=none;html=1;rounded=0;fillColor=#1ba1e2;strokeColor=#006EAF;" edge="1" parent="1">
          <mxGeometry width="50" height="50" relative="1" as="geometry">
            <mxPoint x="140" y="538" as="sourcePoint" />
            <mxPoint x="1040" y="538" as="targetPoint" />
          </mxGeometry>
        </mxCell>
        <mxCell id="tEogaM8hIcUbl6TOvtMi-12" value="UAT" style="edgeLabel;html=1;align=center;verticalAlign=middle;resizable=0;points=[];" vertex="1" connectable="0" parent="tEogaM8hIcUbl6TOvtMi-11">
          <mxGeometry x="0.9034" relative="1" as="geometry">
            <mxPoint as="offset" />
          </mxGeometry>
        </mxCell>
        <mxCell id="tEogaM8hIcUbl6TOvtMi-13" value="" style="endArrow=none;html=1;rounded=0;fillColor=#e51400;strokeColor=#B20000;" edge="1" parent="1">
          <mxGeometry width="50" height="50" relative="1" as="geometry">
            <mxPoint x="60" y="641" as="sourcePoint" />
            <mxPoint x="1050" y="641" as="targetPoint" />
          </mxGeometry>
        </mxCell>
        <mxCell id="tEogaM8hIcUbl6TOvtMi-14" value="Master" style="edgeLabel;html=1;align=center;verticalAlign=middle;resizable=0;points=[];" vertex="1" connectable="0" parent="tEogaM8hIcUbl6TOvtMi-13">
          <mxGeometry x="0.8468" y="2" relative="1" as="geometry">
            <mxPoint x="29" as="offset" />
          </mxGeometry>
        </mxCell>
        <mxCell id="tEogaM8hIcUbl6TOvtMi-15" style="edgeStyle=orthogonalEdgeStyle;rounded=0;orthogonalLoop=1;jettySize=auto;html=1;" edge="1" parent="1">
          <mxGeometry relative="1" as="geometry">
            <mxPoint x="257" y="428.28999999999996" as="targetPoint" />
            <mxPoint x="257" y="358.28999999999996" as="sourcePoint" />
          </mxGeometry>
        </mxCell>
        <mxCell id="tEogaM8hIcUbl6TOvtMi-16" value="Story" style="edgeLabel;html=1;align=center;verticalAlign=middle;resizable=0;points=[];" vertex="1" connectable="0" parent="tEogaM8hIcUbl6TOvtMi-15">
          <mxGeometry x="0.8331" y="-2" relative="1" as="geometry">
            <mxPoint y="-34" as="offset" />
          </mxGeometry>
        </mxCell>
        <mxCell id="tEogaM8hIcUbl6TOvtMi-17" style="edgeStyle=orthogonalEdgeStyle;rounded=0;orthogonalLoop=1;jettySize=auto;html=1;" edge="1" parent="1">
          <mxGeometry relative="1" as="geometry">
            <mxPoint x="343" y="428.28999999999996" as="targetPoint" />
            <mxPoint x="343" y="358.28999999999996" as="sourcePoint" />
          </mxGeometry>
        </mxCell>
        <mxCell id="tEogaM8hIcUbl6TOvtMi-18" value="Bugfix1" style="edgeLabel;html=1;align=center;verticalAlign=middle;resizable=0;points=[];" vertex="1" connectable="0" parent="tEogaM8hIcUbl6TOvtMi-17">
          <mxGeometry x="0.7065" relative="1" as="geometry">
            <mxPoint x="5" y="-20" as="offset" />
          </mxGeometry>
        </mxCell>
        <mxCell id="tEogaM8hIcUbl6TOvtMi-19" style="edgeStyle=orthogonalEdgeStyle;rounded=0;orthogonalLoop=1;jettySize=auto;html=1;" edge="1" parent="1">
          <mxGeometry relative="1" as="geometry">
            <mxPoint x="528" y="428.28999999999996" as="targetPoint" />
            <mxPoint x="528" y="358.28999999999996" as="sourcePoint" />
          </mxGeometry>
        </mxCell>
        <mxCell id="tEogaM8hIcUbl6TOvtMi-20" value="Bugfix3" style="edgeLabel;html=1;align=center;verticalAlign=middle;resizable=0;points=[];" vertex="1" connectable="0" parent="tEogaM8hIcUbl6TOvtMi-19">
          <mxGeometry x="0.5011" y="-2" relative="1" as="geometry">
            <mxPoint x="3" y="-17" as="offset" />
          </mxGeometry>
        </mxCell>
        <mxCell id="tEogaM8hIcUbl6TOvtMi-21" value="`" style="endArrow=classic;html=1;rounded=0;" edge="1" parent="1">
          <mxGeometry width="50" height="50" relative="1" as="geometry">
            <mxPoint x="30" y="41" as="sourcePoint" />
            <mxPoint x="1050" y="40" as="targetPoint" />
          </mxGeometry>
        </mxCell>
        <mxCell id="tEogaM8hIcUbl6TOvtMi-22" value="Time" style="edgeLabel;html=1;align=center;verticalAlign=middle;resizable=0;points=[];" vertex="1" connectable="0" parent="tEogaM8hIcUbl6TOvtMi-21">
          <mxGeometry x="0.877" y="3" relative="1" as="geometry">
            <mxPoint as="offset" />
          </mxGeometry>
        </mxCell>
        <mxCell id="tEogaM8hIcUbl6TOvtMi-23" value="" style="endArrow=none;html=1;rounded=0;" edge="1" parent="1">
          <mxGeometry width="50" height="50" relative="1" as="geometry">
            <mxPoint x="186" y="359" as="sourcePoint" />
            <mxPoint x="1036" y="359" as="targetPoint" />
          </mxGeometry>
        </mxCell>
        <mxCell id="tEogaM8hIcUbl6TOvtMi-24" value="Feature1" style="edgeLabel;html=1;align=center;verticalAlign=middle;resizable=0;points=[];" vertex="1" connectable="0" parent="tEogaM8hIcUbl6TOvtMi-23">
          <mxGeometry x="0.6556" y="1" relative="1" as="geometry">
            <mxPoint x="83" as="offset" />
          </mxGeometry>
        </mxCell>
        <mxCell id="tEogaM8hIcUbl6TOvtMi-25" value="" style="endArrow=classic;html=1;rounded=0;" edge="1" parent="1">
          <mxGeometry width="50" height="50" relative="1" as="geometry">
            <mxPoint x="191" y="638.29" as="sourcePoint" />
            <mxPoint x="191" y="358.28999999999996" as="targetPoint" />
          </mxGeometry>
        </mxCell>
        <mxCell id="tEogaM8hIcUbl6TOvtMi-26" value="Create" style="edgeLabel;html=1;align=center;verticalAlign=middle;resizable=0;points=[];" vertex="1" connectable="0" parent="tEogaM8hIcUbl6TOvtMi-25">
          <mxGeometry x="-0.7429" y="1" relative="1" as="geometry">
            <mxPoint as="offset" />
          </mxGeometry>
        </mxCell>
        <mxCell id="tEogaM8hIcUbl6TOvtMi-27" value="" style="endArrow=classic;html=1;rounded=0;" edge="1" parent="1">
          <mxGeometry width="50" height="50" relative="1" as="geometry">
            <mxPoint x="403" y="358.28999999999996" as="sourcePoint" />
            <mxPoint x="403" y="428.28999999999996" as="targetPoint" />
          </mxGeometry>
        </mxCell>
        <mxCell id="tEogaM8hIcUbl6TOvtMi-28" value="Bugfix2" style="edgeLabel;html=1;align=center;verticalAlign=middle;resizable=0;points=[];" vertex="1" connectable="0" parent="tEogaM8hIcUbl6TOvtMi-27">
          <mxGeometry x="-0.0476" y="-1" relative="1" as="geometry">
            <mxPoint as="offset" />
          </mxGeometry>
        </mxCell>
        <mxCell id="tEogaM8hIcUbl6TOvtMi-29" value="" style="shape=link;html=1;rounded=0;" edge="1" parent="1">
          <mxGeometry width="100" relative="1" as="geometry">
            <mxPoint x="70" y="231" as="sourcePoint" />
            <mxPoint x="1020" y="231" as="targetPoint" />
          </mxGeometry>
        </mxCell>
        <mxCell id="tEogaM8hIcUbl6TOvtMi-30" value="QAEnvironment" style="edgeLabel;html=1;align=center;verticalAlign=middle;resizable=0;points=[];" vertex="1" connectable="0" parent="tEogaM8hIcUbl6TOvtMi-29">
          <mxGeometry x="0.9074" y="4" relative="1" as="geometry">
            <mxPoint x="1" as="offset" />
          </mxGeometry>
        </mxCell>
        <mxCell id="tEogaM8hIcUbl6TOvtMi-31" value="" style="endArrow=classic;html=1;rounded=0;strokeWidth=3;" edge="1" parent="1">
          <mxGeometry width="50" height="50" relative="1" as="geometry">
            <mxPoint x="277" y="428.28999999999996" as="sourcePoint" />
            <mxPoint x="277" y="239" as="targetPoint" />
          </mxGeometry>
        </mxCell>
        <mxCell id="tEogaM8hIcUbl6TOvtMi-32" value="" style="shape=link;html=1;rounded=0;" edge="1" parent="1">
          <mxGeometry width="100" relative="1" as="geometry">
            <mxPoint x="70" y="164" as="sourcePoint" />
            <mxPoint x="1020" y="164" as="targetPoint" />
          </mxGeometry>
        </mxCell>
        <mxCell id="tEogaM8hIcUbl6TOvtMi-33" value="StageEnvironment" style="edgeLabel;html=1;align=center;verticalAlign=middle;resizable=0;points=[];" vertex="1" connectable="0" parent="tEogaM8hIcUbl6TOvtMi-32">
          <mxGeometry x="0.9087" y="-1" relative="1" as="geometry">
            <mxPoint as="offset" />
          </mxGeometry>
        </mxCell>
        <mxCell id="tEogaM8hIcUbl6TOvtMi-36" value="" style="endArrow=classic;html=1;rounded=0;strokeWidth=3;" edge="1" parent="1">
          <mxGeometry width="50" height="50" relative="1" as="geometry">
            <mxPoint x="511" y="538.29" as="sourcePoint" />
            <mxPoint x="511" y="164" as="targetPoint" />
          </mxGeometry>
        </mxCell>
        <mxCell id="tEogaM8hIcUbl6TOvtMi-37" value="" style="endArrow=classic;html=1;rounded=0;fillColor=#e51400;strokeColor=#B20000;" edge="1" parent="1">
          <mxGeometry width="50" height="50" relative="1" as="geometry">
            <mxPoint x="542" y="358.28999999999996" as="sourcePoint" />
            <mxPoint x="542" y="538.29" as="targetPoint" />
          </mxGeometry>
        </mxCell>
        <mxCell id="tEogaM8hIcUbl6TOvtMi-38" value="Merge" style="edgeLabel;html=1;align=center;verticalAlign=middle;resizable=0;points=[];" vertex="1" connectable="0" parent="tEogaM8hIcUbl6TOvtMi-37">
          <mxGeometry x="0.2137" y="-1" relative="1" as="geometry">
            <mxPoint as="offset" />
          </mxGeometry>
        </mxCell>
        <mxCell id="tEogaM8hIcUbl6TOvtMi-39" value="" style="endArrow=classic;html=1;rounded=0;strokeWidth=3;" edge="1" parent="1">
          <mxGeometry width="50" height="50" relative="1" as="geometry">
            <mxPoint x="562" y="538.29" as="sourcePoint" />
            <mxPoint x="562" y="164" as="targetPoint" />
          </mxGeometry>
        </mxCell>
        <mxCell id="tEogaM8hIcUbl6TOvtMi-40" value="" style="endArrow=classic;html=1;rounded=0;strokeWidth=3;" edge="1" parent="1">
          <mxGeometry width="50" height="50" relative="1" as="geometry">
            <mxPoint x="413" y="428.28999999999996" as="sourcePoint" />
            <mxPoint x="413" y="229" as="targetPoint" />
          </mxGeometry>
        </mxCell>
        <mxCell id="tEogaM8hIcUbl6TOvtMi-41" value="" style="endArrow=classic;html=1;rounded=0;fillColor=#a20025;strokeColor=#6F0000;" edge="1" parent="1">
          <mxGeometry width="50" height="50" relative="1" as="geometry">
            <mxPoint x="378" y="287" as="sourcePoint" />
            <mxPoint x="378" y="427" as="targetPoint" />
          </mxGeometry>
        </mxCell>
        <mxCell id="tEogaM8hIcUbl6TOvtMi-42" value="Some other feature fix" style="edgeLabel;html=1;align=center;verticalAlign=middle;resizable=0;points=[];" vertex="1" connectable="0" parent="tEogaM8hIcUbl6TOvtMi-41">
          <mxGeometry x="-0.6429" y="1" relative="1" as="geometry">
            <mxPoint x="-1" y="27" as="offset" />
          </mxGeometry>
        </mxCell>
        <mxCell id="tEogaM8hIcUbl6TOvtMi-43" value="" style="shape=link;html=1;rounded=0;" edge="1" parent="1">
          <mxGeometry width="100" relative="1" as="geometry">
            <mxPoint x="70" y="104" as="sourcePoint" />
            <mxPoint x="1020" y="104" as="targetPoint" />
          </mxGeometry>
        </mxCell>
        <mxCell id="tEogaM8hIcUbl6TOvtMi-44" value="ProdEnvironment" style="edgeLabel;html=1;align=center;verticalAlign=middle;resizable=0;points=[];" vertex="1" connectable="0" parent="tEogaM8hIcUbl6TOvtMi-43">
          <mxGeometry x="0.9074" y="4" relative="1" as="geometry">
            <mxPoint x="1" as="offset" />
          </mxGeometry>
        </mxCell>
        <mxCell id="tEogaM8hIcUbl6TOvtMi-45" value="" style="endArrow=classic;html=1;rounded=0;strokeWidth=3;" edge="1" parent="1">
          <mxGeometry width="50" height="50" relative="1" as="geometry">
            <mxPoint x="820" y="641" as="sourcePoint" />
            <mxPoint x="822" y="101" as="targetPoint" />
          </mxGeometry>
        </mxCell>
        <mxCell id="tEogaM8hIcUbl6TOvtMi-46" value="" style="endArrow=classic;html=1;rounded=0;" edge="1" parent="1">
          <mxGeometry width="50" height="50" relative="1" as="geometry">
            <mxPoint x="143" y="641" as="sourcePoint" />
            <mxPoint x="143" y="544" as="targetPoint" />
          </mxGeometry>
        </mxCell>
        <mxCell id="tEogaM8hIcUbl6TOvtMi-47" value="Create" style="edgeLabel;html=1;align=center;verticalAlign=middle;resizable=0;points=[];" vertex="1" connectable="0" parent="tEogaM8hIcUbl6TOvtMi-46">
          <mxGeometry x="-0.0029" y="-4" relative="1" as="geometry">
            <mxPoint as="offset" />
          </mxGeometry>
        </mxCell>
        <mxCell id="tEogaM8hIcUbl6TOvtMi-48" value="" style="endArrow=classic;html=1;rounded=0;" edge="1" parent="1">
          <mxGeometry width="50" height="50" relative="1" as="geometry">
            <mxPoint x="103" y="641" as="sourcePoint" />
            <mxPoint x="103" y="434" as="targetPoint" />
          </mxGeometry>
        </mxCell>
        <mxCell id="tEogaM8hIcUbl6TOvtMi-49" value="Create" style="edgeLabel;html=1;align=center;verticalAlign=middle;resizable=0;points=[];" vertex="1" connectable="0" parent="tEogaM8hIcUbl6TOvtMi-48">
          <mxGeometry x="0.2843" y="2" relative="1" as="geometry">
            <mxPoint as="offset" />
          </mxGeometry>
        </mxCell>
        <mxCell id="tEogaM8hIcUbl6TOvtMi-50" value="" style="endArrow=classic;html=1;rounded=0;" edge="1" parent="1">
          <mxGeometry width="50" height="50" relative="1" as="geometry">
            <mxPoint x="858" y="491" as="sourcePoint" />
            <mxPoint x="858" y="641" as="targetPoint" />
          </mxGeometry>
        </mxCell>
        <mxCell id="tEogaM8hIcUbl6TOvtMi-51" value="HotFix" style="edgeLabel;html=1;align=center;verticalAlign=middle;resizable=0;points=[];" vertex="1" connectable="0" parent="tEogaM8hIcUbl6TOvtMi-50">
          <mxGeometry x="-0.3668" y="-1" relative="1" as="geometry">
            <mxPoint y="21" as="offset" />
          </mxGeometry>
        </mxCell>
        <mxCell id="tEogaM8hIcUbl6TOvtMi-52" value="" style="endArrow=classic;html=1;rounded=0;strokeWidth=3;" edge="1" parent="1">
          <mxGeometry width="50" height="50" relative="1" as="geometry">
            <mxPoint x="901" y="640" as="sourcePoint" />
            <mxPoint x="901" y="101" as="targetPoint" />
          </mxGeometry>
        </mxCell>
        <mxCell id="tEogaM8hIcUbl6TOvtMi-53" value="" style="endArrow=classic;html=1;rounded=0;strokeWidth=3;" edge="1" parent="1">
          <mxGeometry width="50" height="50" relative="1" as="geometry">
            <mxPoint x="872" y="640" as="sourcePoint" />
            <mxPoint x="872" y="164" as="targetPoint" />
          </mxGeometry>
        </mxCell>
        <mxCell id="tEogaM8hIcUbl6TOvtMi-54" value="UAT Test" style="text;html=1;align=center;verticalAlign=middle;whiteSpace=wrap;rounded=0;" vertex="1" parent="1">
          <mxGeometry x="501" y="694" width="60" height="30" as="geometry" />
        </mxCell>
        <mxCell id="tEogaM8hIcUbl6TOvtMi-59" value="" style="endArrow=classic;html=1;rounded=0;fillColor=#a20025;strokeColor=#6F0000;" edge="1" parent="1">
          <mxGeometry width="50" height="50" relative="1" as="geometry">
            <mxPoint x="610" y="540" as="sourcePoint" />
            <mxPoint x="610" y="640" as="targetPoint" />
          </mxGeometry>
        </mxCell>
        <mxCell id="tEogaM8hIcUbl6TOvtMi-60" value="Merge" style="edgeLabel;html=1;align=center;verticalAlign=middle;resizable=0;points=[];" vertex="1" connectable="0" parent="tEogaM8hIcUbl6TOvtMi-59">
          <mxGeometry x="0.5121" y="-1" relative="1" as="geometry">
            <mxPoint y="-24" as="offset" />
          </mxGeometry>
        </mxCell>
        <mxCell id="tEogaM8hIcUbl6TOvtMi-61" value="" style="endArrow=classic;html=1;rounded=0;strokeWidth=3;" edge="1" parent="1">
          <mxGeometry width="50" height="50" relative="1" as="geometry">
            <mxPoint x="680" y="640" as="sourcePoint" />
            <mxPoint x="680" y="168" as="targetPoint" />
          </mxGeometry>
        </mxCell>
        <mxCell id="tEogaM8hIcUbl6TOvtMi-62" value="" style="endArrow=classic;html=1;rounded=0;strokeWidth=3;" edge="1" parent="1">
          <mxGeometry width="50" height="50" relative="1" as="geometry">
            <mxPoint x="735" y="640" as="sourcePoint" />
            <mxPoint x="735" y="168" as="targetPoint" />
          </mxGeometry>
        </mxCell>
        <mxCell id="tEogaM8hIcUbl6TOvtMi-63" value="" style="endArrow=classic;html=1;rounded=0;" edge="1" parent="1">
          <mxGeometry width="50" height="50" relative="1" as="geometry">
            <mxPoint x="707" y="361" as="sourcePoint" />
            <mxPoint x="705" y="640" as="targetPoint" />
          </mxGeometry>
        </mxCell>
        <mxCell id="tEogaM8hIcUbl6TOvtMi-64" value="Bugfix4" style="edgeLabel;html=1;align=center;verticalAlign=middle;resizable=0;points=[];" vertex="1" connectable="0" parent="tEogaM8hIcUbl6TOvtMi-63">
          <mxGeometry x="-0.203" y="1" relative="1" as="geometry">
            <mxPoint as="offset" />
          </mxGeometry>
        </mxCell>
        <mxCell id="tEogaM8hIcUbl6TOvtMi-65" value="QA test" style="text;html=1;align=center;verticalAlign=middle;resizable=0;points=[];autosize=1;strokeColor=none;fillColor=none;" vertex="1" parent="1">
          <mxGeometry x="337" y="689" width="60" height="30" as="geometry" />
        </mxCell>
        <mxCell id="tEogaM8hIcUbl6TOvtMi-66" value="Regression" style="text;html=1;align=center;verticalAlign=middle;resizable=0;points=[];autosize=1;strokeColor=none;fillColor=none;" vertex="1" parent="1">
          <mxGeometry x="656" y="689" width="80" height="30" as="geometry" />
        </mxCell>
        <mxCell id="tEogaM8hIcUbl6TOvtMi-67" value="" style="endArrow=none;html=1;rounded=0;" edge="1" parent="1">
          <mxGeometry width="50" height="50" relative="1" as="geometry">
            <mxPoint x="840" y="491" as="sourcePoint" />
            <mxPoint x="1040" y="491" as="targetPoint" />
          </mxGeometry>
        </mxCell>
        <mxCell id="tEogaM8hIcUbl6TOvtMi-68" value="HotFixes" style="edgeLabel;html=1;align=center;verticalAlign=middle;resizable=0;points=[];" vertex="1" connectable="0" parent="tEogaM8hIcUbl6TOvtMi-67">
          <mxGeometry x="0.6843" relative="1" as="geometry">
            <mxPoint as="offset" />
          </mxGeometry>
        </mxCell>
        <mxCell id="tEogaM8hIcUbl6TOvtMi-69" value="" style="endArrow=classic;html=1;rounded=0;" edge="1" parent="1">
          <mxGeometry width="50" height="50" relative="1" as="geometry">
            <mxPoint x="837" y="641" as="sourcePoint" />
            <mxPoint x="840" y="491" as="targetPoint" />
          </mxGeometry>
        </mxCell>
        <mxCell id="tEogaM8hIcUbl6TOvtMi-70" value="" style="endArrow=classic;html=1;rounded=0;" edge="1" parent="1">
          <mxGeometry width="50" height="50" relative="1" as="geometry">
            <mxPoint x="940" y="491" as="sourcePoint" />
            <mxPoint x="940" y="431" as="targetPoint" />
          </mxGeometry>
        </mxCell>
        <mxCell id="tEogaM8hIcUbl6TOvtMi-71" value="Merge" style="edgeLabel;html=1;align=center;verticalAlign=middle;resizable=0;points=[];" vertex="1" connectable="0" parent="tEogaM8hIcUbl6TOvtMi-70">
          <mxGeometry x="0.0333" y="-1" relative="1" as="geometry">
            <mxPoint as="offset" />
          </mxGeometry>
        </mxCell>
        <mxCell id="tEogaM8hIcUbl6TOvtMi-72" value="" style="endArrow=classic;html=1;rounded=0;" edge="1" parent="1">
          <mxGeometry width="50" height="50" relative="1" as="geometry">
            <mxPoint x="943" y="491" as="sourcePoint" />
            <mxPoint x="943" y="541" as="targetPoint" />
          </mxGeometry>
        </mxCell>
        <mxCell id="tEogaM8hIcUbl6TOvtMi-73" value="Merge" style="edgeLabel;html=1;align=center;verticalAlign=middle;resizable=0;points=[];" vertex="1" connectable="0" parent="tEogaM8hIcUbl6TOvtMi-72">
          <mxGeometry x="-0.0971" y="1" relative="1" as="geometry">
            <mxPoint as="offset" />
          </mxGeometry>
        </mxCell>
        <mxCell id="tEogaM8hIcUbl6TOvtMi-74" value="Development" style="text;html=1;align=center;verticalAlign=middle;resizable=0;points=[];autosize=1;strokeColor=none;fillColor=none;" vertex="1" parent="1">
          <mxGeometry x="177" y="690" width="90" height="30" as="geometry" />
        </mxCell>
        <mxCell id="tEogaM8hIcUbl6TOvtMi-75" value="" style="endArrow=classic;html=1;rounded=0;fillColor=#d80073;strokeColor=#A50040;" edge="1" parent="1">
          <mxGeometry width="50" height="50" relative="1" as="geometry">
            <mxPoint x="453" y="430" as="sourcePoint" />
            <mxPoint x="453" y="540" as="targetPoint" />
          </mxGeometry>
        </mxCell>
        <mxCell id="tEogaM8hIcUbl6TOvtMi-76" value="Merge" style="edgeLabel;html=1;align=center;verticalAlign=middle;resizable=0;points=[];" vertex="1" connectable="0" parent="tEogaM8hIcUbl6TOvtMi-75">
          <mxGeometry x="-0.0745" y="1" relative="1" as="geometry">
            <mxPoint as="offset" />
          </mxGeometry>
        </mxCell>
        <mxCell id="tEogaM8hIcUbl6TOvtMi-77" value="" style="endArrow=classic;html=1;rounded=0;strokeWidth=3;" edge="1" parent="1">
          <mxGeometry width="50" height="50" relative="1" as="geometry">
            <mxPoint x="570" y="425.28999999999996" as="sourcePoint" />
            <mxPoint x="570" y="240" as="targetPoint" />
          </mxGeometry>
        </mxCell>
        <mxCell id="tEogaM8hIcUbl6TOvtMi-78" value="" style="endArrow=classic;html=1;rounded=0;" edge="1" parent="1">
          <mxGeometry width="50" height="50" relative="1" as="geometry">
            <mxPoint x="767" y="640" as="sourcePoint" />
            <mxPoint x="767" y="540" as="targetPoint" />
          </mxGeometry>
        </mxCell>
        <mxCell id="tEogaM8hIcUbl6TOvtMi-79" value="" style="endArrow=classic;html=1;rounded=0;" edge="1" parent="1">
          <mxGeometry width="50" height="50" relative="1" as="geometry">
            <mxPoint x="774" y="640" as="sourcePoint" />
            <mxPoint x="774" y="430" as="targetPoint" />
          </mxGeometry>
        </mxCell>
      </root>
    </mxGraphModel>
  </diagram>
</mxfile>
